# xmcd
#
# Track frame offsets:
# 150
# 14773
# 30145
# 46054
# 70035
# 86351
# 102622
# 121707
# 144278
# 168801
# 188016
# 201513
#
# Disc length: 2901 seconds
#
#
# Revision: 0
# Processed by: cddbd v1.5.2PL0 Copyright (c) Steve Scherf et al.
# Submitted via: FreeRIP 2.945 
#
DISCID=910b530c
DTITLE=Dwight Yoakam - Guitars and Cadillacs Ext. Edition CD 2 Live - Dwight Yoakam
DYEAR=1900
DGENRE=Country
TTITLE0=can't you hear me calling
TTITLE1=honky tonk man
TTITLE2=guitars, cadillacs
TTITLE3=rocky road blues
TTITLE4=heartaches by the number
TTITLE5=I'll be gone
TTITLE6=It won't hurt
TTITLE7=my bucket's got a hole in it
TTITLE8=south of Cincinatti
TTITLE9=mystery train
TTITLE10=ring of fire
TTITLE11=since I started drinking again
EXTD=
EXTT0=
EXTT1=
EXTT2=
EXTT3=
EXTT4=
EXTT5=
EXTT6=
EXTT7=
EXTT8=
EXTT9=
EXTT10=
EXTT11=
PLAYORDER=
